 <svg  version="1.0" xmlns="http://www.w3.org/2000/svg"  width="250.000000pt" height="250.000000pt" viewBox="0 0 250.000000 250.000000"  preserveAspectRatio="xMidYMid meet">  <g transform="translate(0.000000,250.000000) scale(0.050000,-0.050000)" fill="#39ff14" stroke="none"> <path d="M1170 4603 c-233 -107 -358 -421 -249 -625 28 -53 55 -47 44 9 -45 237 337 377 592 218 l103 -63 12 49 c7 27 21 49 33 49 11 0 15 -18 9 -41 -8 -31 2 -46 38 -60 35 -13 48 -33 48 -74 0 -30 14 -91 29 -135 51 -140 43 -159 -133 -331 -91 -87 -172 -159 -180 -159 -9 0 -16 -10 -16 -21 0 -25 -121 -139 -147 -139 -9 0 -12 14 -6 30 7 17 -6 60 -27 95 -22 36 -40 56 -40 45 -1 -24 -39 32 -40 57 0 10 13 7 28 -6 43 -35 59 9 28 74 -28 58 -111 86 -136 46 -9 -16 -22 -12 -42 12 -24 30 -24 32 2 18 17 -10 5 6 -26 36 -64 60 -94 67 -94 22 0 -17 -31 -44 -70 -60 -38 -16 -68 -36 -66 -44 3 -8 -7 -35 -20 -60 -28 -49 -115 -22 -95 29 9 25 -88 106 -127 106 -12 0 -22 -17 -22 -39 0 -21 -9 -44 -20 -51 -12 -7 0 -49 30 -105 49 -93 43 -124 -24 -125 -25 0 -138 -69 -229 -139 -63 -49 -132 -182 -155 -304 -16 -78 -18 -81 -20 -22 -4 125 155 405 230 405 16 0 28 10 28 21 0 36 55 79 100 79 60 0 39 49 -24 56 -34 4 -71 -13 -111 -50 -34 -31 -89 -77 -123 -103 -34 -25 -62 -58 -62 -72 0 -15 -14 -32 -31 -39 -17 -6 -26 -20 -20 -30 6 -11 3 -24 -7 -31 -10 -6 -14 -27 -9 -46 10 -40 -63 -97 -83 -65 -7 11 -4 20 7 20 10 0 24 14 31 31 7 19 3 26 -10 18 -28 -18 -5 98 35 176 66 130 256 294 373 323 31 7 51 21 44 31 -18 30 -246 -85 -354 -179 -242 -208 -250 -554 -16 -738 117 -93 198 -115 122 -34 -104 111 -80 274 61 423 94 100 142 127 282 158 47 10 54 19 43 61 -8 31 -4 50 10 50 12 0 22 -12 22 -28 0 -32 95 -56 113 -28 6 11 31 2 54 -19 67 -59 142 -101 193 -108 64 -10 104 -140 69 -227 -35 -87 -68 -237 -82 -372 -10 -92 -18 -111 -35 -89 -51 68 -272 159 -272 112 0 -25 -75 -48 -160 -50 -65 -1 -70 -5 -63 -57 7 -60 -137 -218 -232 -255 -51 -20 -61 -59 -15 -59 17 0 30 -7 30 -15 -1 -28 -30 -55 -59 -55 -58 0 -129 -225 -130 -411 -2 -314 162 -489 460 -489 177 0 270 36 157 60 -273 60 -363 415 -162 644 40 45 32 86 -17 86 -16 0 -29 9 -29 20 0 12 21 16 48 9 38 -10 56 -1 84 41 27 41 45 50 83 41 30 -8 81 3 134 29 127 61 177 35 208 -106 26 -114 178 -433 239 -501 32 -36 31 -40 -32 -93 -37 -30 -69 -72 -72 -93 -3 -20 -23 -40 -44 -43 -165 -25 -209 -82 -161 -203 23 -56 27 -95 14 -127 -23 -63 -5 -86 80 -101 66 -12 71 -19 64 -71 -7 -46 3 -67 51 -102 34 -25 65 -62 70 -83 10 -38 54 -53 54 -18 0 11 14 14 31 8 17 -7 26 -26 19 -46 -26 -83 391 -257 562 -234 259 36 473 339 391 554 l-19 49 -22 -56 c-12 -31 -22 -64 -22 -73 0 -103 -211 -165 -385 -112 -109 33 -122 26 -35 -19 75 -39 77 -70 5 -70 -79 -1 -112 -27 -96 -78 15 -46 136 -62 162 -20 8 12 44 18 81 14 67 -8 92 11 43 31 -14 5 4 11 39 11 35 1 69 11 76 22 19 30 50 24 50 -10 0 -16 -9 -30 -21 -30 -11 0 -40 -18 -64 -40 -23 -22 -57 -40 -75 -40 -17 0 -42 -10 -54 -22 -30 -30 -283 16 -326 58 -27 26 -25 28 16 18 86 -20 43 68 -71 145 -110 75 -131 118 -65 135 22 6 40 20 40 30 0 11 32 -8 71 -42 100 -88 101 -77 3 26 -76 80 -86 84 -102 50 -10 -21 -25 -38 -34 -38 -27 0 -40 37 -18 50 11 7 15 21 9 32 -6 10 -19 14 -29 8 -25 -16 -45 63 -28 115 7 25 15 90 16 145 3 130 34 135 182 31 460 -322 1153 -314 1616 18 150 108 181 88 186 -124 3 -135 -2 -175 -23 -175 -39 0 -56 -38 -30 -69 15 -17 16 -32 3 -40 -10 -6 -25 7 -32 29 -17 53 -33 51 -92 -12 -215 -231 -587 -209 -649 40 -20 79 -49 41 -49 -66 0 -342 306 -559 634 -450 161 53 348 171 335 210 -13 42 29 73 51 38 17 -28 60 -10 60 25 0 13 23 42 51 64 28 23 52 64 53 91 4 68 28 95 98 110 55 13 58 18 55 107 -2 52 7 114 20 137 32 61 -55 166 -138 166 -46 0 -61 11 -71 51 -15 59 -128 131 -128 81 0 -50 -108 -124 -117 -81 -4 19 8 43 25 53 18 10 28 27 21 38 -6 10 -22 13 -34 5 -14 -9 -17 -2 -10 17 16 41 -38 116 -83 116 -60 0 -109 -70 -93 -134 10 -40 8 -50 -7 -35 -12 11 -24 44 -26 72 -3 40 -13 49 -42 41 -32 -8 -36 -2 -25 33 7 23 4 54 -7 68 -106 128 -123 155 -99 155 20 1 20 5 -3 19 -22 15 -24 25 -7 42 26 26 116 -10 98 -39 -5 -9 3 -33 19 -54 16 -21 29 -53 29 -71 1 -19 23 -37 56 -43 127 -23 157 -35 190 -76 19 -23 35 -31 35 -18 0 19 7 19 32 -1 36 -30 31 -36 136 151 37 66 93 197 123 290 31 94 65 177 77 185 39 26 138 16 175 -18 22 -20 70 -32 122 -32 64 1 98 -12 138 -49 30 -28 63 -45 74 -38 11 7 25 4 31 -6 7 -10 -10 -23 -38 -30 l-49 -12 61 -86 c116 -165 117 -438 2 -544 -54 -50 -176 -97 -206 -79 -8 5 -20 1 -27 -9 -17 -28 103 -62 217 -62 345 2 549 347 427 720 l-29 90 10 -163 c5 -90 2 -180 -7 -200 -8 -21 -17 -41 -18 -47 -42 -155 -80 -122 -83 72 -2 155 -43 288 -89 288 -24 0 -25 -46 0 -71 10 -10 28 -107 39 -214 10 -107 26 -205 34 -218 9 -15 5 -18 -12 -7 -16 10 -35 5 -49 -12 -12 -15 -54 -55 -92 -88 -53 -46 -59 -49 -25 -10 108 124 125 381 38 571 -62 137 -62 129 -10 129 70 0 160 64 147 104 -7 20 -2 36 10 36 11 0 21 14 21 30 0 17 -15 30 -34 30 -18 0 -62 29 -97 65 -35 36 -78 77 -96 91 -18 14 -33 51 -33 81 0 74 -12 83 -81 63 -48 -14 -70 -7 -133 43 -42 34 -78 50 -82 38 -4 -12 -38 -35 -76 -51 -133 -55 -191 -143 -154 -234 17 -43 25 -83 19 -90 -7 -7 -13 -2 -13 11 0 38 -80 27 -81 -12 -1 -27 -6 -24 -20 10 -10 25 -22 45 -28 45 -5 0 -4 -15 3 -33 8 -22 4 -29 -16 -23 -15 6 -27 25 -25 43 3 34 -27 42 -81 21 -52 -20 -40 -119 21 -167 29 -22 41 -41 28 -41 -13 0 -50 26 -82 57 -47 48 -59 52 -67 25 -5 -17 -7 0 -6 38 2 39 13 70 24 71 11 0 45 17 76 37 46 31 64 34 106 15 47 -22 50 -20 38 22 -12 44 -11 44 31 -5 35 -41 40 -43 28 -10 -8 22 -16 108 -18 190 -3 83 -12 181 -21 220 -8 38 -17 106 -20 150 -2 44 -10 98 -18 121 -18 50 54 149 108 149 53 0 158 64 171 104 8 26 28 31 88 24 57 -7 79 -1 89 23 6 17 21 26 32 19 13 -8 13 -25 0 -50 -29 -54 -29 -54 70 -65 279 -31 461 -355 313 -555 -59 -80 -55 -87 32 -42 131 68 245 214 245 316 0 22 -11 17 -39 -17 -33 -39 -40 -41 -40 -12 -1 19 7 35 17 35 28 0 46 101 23 129 -11 13 -14 32 -6 41 8 9 5 11 -7 4 -13 -8 -57 28 -100 81 -124 149 -178 195 -235 198 -65 3 -70 -37 -8 -79 144 -97 268 -250 247 -305 -5 -15 -2 -33 9 -40 38 -23 19 -50 -21 -29 -22 12 -40 40 -40 62 0 108 -123 237 -300 317 -61 27 -113 51 -117 54 -4 2 19 51 50 109 32 58 60 91 63 74 4 -20 22 -27 54 -21 108 21 352 -168 414 -321 18 -46 34 -68 35 -48 2 60 -75 189 -148 248 -104 83 -357 206 -380 184 -30 -29 -56 -21 -43 13 24 64 -54 58 -110 -10 -34 -41 -64 -60 -79 -50 -18 11 -22 3 -14 -27 7 -26 0 -46 -19 -53 -55 -21 -76 -10 -37 20 34 25 34 29 5 29 -19 0 -34 10 -34 21 0 12 -9 16 -21 8 -11 -7 -34 -2 -50 12 -35 28 -39 68 -6 47 13 -8 7 9 -15 38 -55 76 -148 51 -117 -32 9 -23 -3 -33 -44 -38 -46 -5 -56 -15 -52 -51 7 -65 -26 -55 -55 16 -14 33 -35 57 -48 53 -31 -10 -42 -216 -11 -209 13 3 29 -8 34 -23 8 -21 -2 -25 -40 -15 -56 14 -83 -21 -54 -68 24 -39 6 -57 -44 -44 -33 9 -39 5 -26 -17 14 -24 12 -24 -17 0 -19 15 -32 38 -29 50 5 21 -103 174 -157 222 -12 11 -42 49 -66 85 -25 36 -58 65 -74 65 -41 0 -110 157 -87 198 24 45 46 146 41 186 -7 56 35 116 71 102 25 -9 29 -3 18 29 -17 56 21 77 48 26 21 -39 23 -39 112 9 280 148 609 31 609 -218 0 -101 40 -31 65 113 46 270 -159 516 -442 531 -161 8 -453 -67 -453 -116 0 -31 87 -34 109 -5 6 8 22 16 36 17 58 5 67 9 55 28 -7 11 1 15 17 8 17 -6 47 -2 68 9 94 51 295 38 355 -23 13 -13 12 -15 -4 -7 -13 8 -30 3 -38 -10 -10 -16 1 -19 38 -10 43 11 59 3 88 -40 58 -88 47 -122 -15 -48 -55 64 -64 68 -173 64 -173 -6 -208 -13 -300 -60 -46 -23 -98 -37 -115 -31 -22 9 -31 0 -31 -30 0 -42 2 -42 63 -10 62 32 289 73 404 73 33 0 78 -22 111 -53 30 -29 62 -46 72 -37 9 8 10 4 2 -10 -8 -14 -5 -25 7 -25 26 0 101 -119 101 -160 0 -16 -23 7 -50 53 -100 167 -329 216 -607 130 l-120 -38 -34 89 c-26 71 -42 87 -71 80 -24 -7 -38 0 -38 17 0 45 -55 11 -69 -42 -6 -27 -25 -49 -41 -49 -16 0 -45 -25 -64 -55 -47 -74 -65 -84 -141 -85 -57 0 -65 -6 -65 -55 0 -30 -18 -84 -40 -120 -54 -90 -52 -101 41 -196 50 -51 86 -108 92 -149 l10 -65 -61 44 c-38 27 -62 34 -62 19 0 -16 -12 -13 -37 9 -20 18 -71 34 -115 34 -62 2 -70 5 -38 19 29 12 9 17 -70 17 -78 0 -99 -5 -70 -17 27 -11 -8 -16 -105 -15 -127 1 -145 6 -145 38 0 20 12 37 26 37 80 0 150 129 100 184 -18 21 -39 75 -45 122 -11 81 -14 84 -91 94 -58 7 -85 23 -103 59 -14 27 -48 61 -76 75 -28 15 -51 39 -51 53 0 98 -120 60 -189 -61 -30 -52 -55 -74 -82 -71 -103 14 -123 19 -147 34 -15 9 -100 17 -189 17 -137 1 -152 4 -93 20 39 10 117 14 174 9 57 -4 100 -2 95 6 -16 26 -139 44 -274 40 -74 -3 -135 1 -135 9 0 40 58 69 216 109 65 17 167 -15 195 -60 18 -30 49 -22 49 12 0 24 8 26 39 10 54 -30 67 -26 56 15 -8 30 1 35 53 28 106 -15 41 19 -92 48 -176 37 -331 34 -426 -9z m668 -246 c-49 -117 -78 -161 -78 -118 0 32 105 243 115 232 4 -4 -12 -55 -37 -114z m1361 -10 c23 -50 41 -96 41 -101 0 -23 -44 23 -59 61 -57 155 -45 183 18 40z m-1251 2 c9 -33 3 -61 -17 -81 -28 -28 -31 -27 -31 9 0 23 -9 46 -21 54 -14 8 -14 21 2 41 35 41 53 35 67 -23z m1152 10 c0 -12 9 -16 20 -9 12 7 17 -6 13 -32 -6 -45 -113 -78 -113 -35 0 10 11 13 23 5 16 -10 20 -3 10 21 -7 19 -8 43 -2 53 16 25 49 23 49 -3z m-977 -180 c-40 -32 -43 -44 -23 -70 22 -25 20 -28 -12 -17 -31 11 -33 9 -13 -13 36 -39 31 -69 -6 -38 -17 14 -26 38 -20 54 9 23 -1 27 -44 17 -40 -10 -28 3 45 47 115 70 140 76 73 20z m850 -39 c23 0 187 -78 187 -89 0 -4 -18 -3 -40 3 -24 7 -44 -1 -51 -20 -14 -36 -89 14 -89 58 0 13 -22 29 -50 36 -28 7 -50 27 -50 45 0 31 3 31 37 0 20 -18 45 -33 56 -33z m-760 -202 c-20 -12 -41 -16 -48 -10 -17 17 -65 -28 -65 -62 0 -15 9 -23 20 -16 11 7 20 -9 20 -37 0 -36 -10 -48 -35 -44 -92 15 -16 191 82 190 54 0 58 -3 26 -21z m864 -169 c21 -47 19 -53 -37 -72 -33 -11 -60 -34 -60 -49 0 -36 -33 -36 -46 -1 -6 16 10 39 38 54 26 14 47 36 46 47 -10 84 25 96 59 21z m-1025 -96 c-7 -34 -19 -66 -27 -72 -8 -6 -29 -38 -46 -71 -37 -73 -136 -93 -180 -36 -23 31 -23 32 1 11 71 -63 197 9 170 96 -11 34 -18 38 -31 17 -13 -21 -23 -22 -40 -5 -29 29 -8 67 35 67 24 0 26 6 7 28 -19 24 -15 30 23 36 80 13 101 -4 88 -71z m1124 -4 c24 -17 44 -41 44 -54 0 -12 -14 -5 -30 16 -29 37 -29 37 -17 1 10 -27 6 -35 -15 -27 -15 5 -25 22 -22 36 3 14 -6 33 -20 42 -14 9 -17 17 -5 17 11 0 40 -14 65 -31z m-512 -120 c61 -51 106 -67 202 -75 35 -2 93 -38 153 -94 53 -49 128 -115 167 -145 249 -196 300 -826 56 -696 -49 26 -56 61 -12 61 34 0 40 31 10 50 -13 8 -13 25 1 51 17 32 5 53 -75 132 -53 51 -84 86 -69 78 20 -12 24 -6 16 21 -31 105 -36 148 -17 148 12 0 27 -17 33 -38 14 -42 108 -112 126 -94 6 6 -22 41 -62 78 -40 37 -73 74 -73 82 0 54 -124 137 -156 104 -23 -23 -27 -38 -12 -48 12 -8 23 -69 24 -136 1 -168 33 -271 114 -368 54 -64 65 -91 51 -119 -37 -69 5 -151 76 -151 53 0 67 -9 76 -50 6 -27 18 -77 28 -110 41 -144 39 -204 -6 -263 -75 -98 -115 -105 -115 -20 0 27 -24 63 -61 90 -33 25 -56 52 -50 61 5 9 -13 37 -40 63 l-49 46 -83 -46 -83 -47 -34 46 c-19 25 -45 40 -57 32 -12 -8 -41 -4 -65 9 -30 16 -39 16 -29 1 30 -48 -29 -18 -64 33 -74 106 -105 185 -73 185 15 0 28 -10 28 -23 0 -40 25 -1 30 47 3 25 6 57 7 70 4 34 83 112 150 146 69 35 83 69 101 245 11 115 9 133 -17 122 -17 -6 -31 -3 -31 8 0 39 44 145 61 145 33 0 42 -42 16 -76 -24 -31 -24 -31 9 -6 20 16 32 39 27 51 -5 12 4 40 19 61 16 21 28 61 28 89 -1 40 -5 45 -20 21 -18 -27 -22 -27 -41 0 -16 23 -19 17 -15 -28 5 -52 -46 -119 -70 -91 -27 31 -31 119 -6 144 16 16 22 39 15 51 -33 52 -70 -100 -47 -194 39 -169 -11 -434 -89 -463 -27 -10 -70 -43 -96 -74 -62 -71 -92 -18 -45 80 17 35 26 73 19 84 -7 12 2 9 19 -5 20 -16 37 -18 44 -7 7 11 2 23 -11 27 -13 5 -17 25 -8 52 8 25 22 40 31 34 10 -6 23 -1 30 10 7 12 6 19 -4 16 -65 -20 -146 105 -148 229 0 26 -17 35 -66 35 -81 0 -96 14 -69 65 15 28 14 46 -1 61 -16 16 -22 15 -22 -3 0 -14 -9 -20 -19 -13 -11 6 -26 -12 -33 -42 -10 -38 -5 -58 18 -71 29 -16 67 -126 57 -165 -3 -10 8 -8 24 6 21 17 33 18 43 2 64 -103 31 -226 -47 -177 -31 19 -38 40 -30 86 8 51 6 55 -13 26 -12 -20 -31 -31 -41 -24 -11 6 -19 0 -19 -13 0 -14 -6 -19 -13 -12 -7 7 -1 27 13 44 14 16 17 30 7 30 -30 0 -72 119 -55 156 58 127 -10 225 -99 141 -27 -25 -32 -38 -14 -33 16 3 30 -3 31 -14 16 -165 60 -430 71 -430 8 0 24 -40 37 -89 15 -60 41 -102 82 -131 80 -57 117 -134 106 -220 -7 -55 -4 -64 14 -40 18 24 20 20 8 -20 -24 -88 -70 -142 -109 -130 -20 7 -40 4 -46 -5 -5 -9 -57 -18 -114 -21 -123 -5 -236 -54 -259 -112 -16 -42 -145 -172 -169 -172 -8 0 -9 28 -4 63 8 46 5 57 -12 40 -44 -44 -52 -22 -50 128 4 192 26 214 159 159 30 -12 35 -3 32 58 -1 40 -9 72 -17 72 -25 0 4 188 37 240 18 29 29 82 26 127 -4 54 2 73 17 63 14 -8 18 -37 11 -72 -11 -48 -8 -56 19 -46 18 7 28 17 23 23 -6 6 2 40 18 77 33 80 56 368 29 368 -11 0 -19 13 -19 28 0 15 -13 33 -30 39 -16 7 -30 5 -30 -3 0 -8 -27 -32 -60 -54 -73 -49 -75 -65 -8 -82 28 -7 43 -19 32 -26 -11 -6 -25 -61 -32 -122 -7 -60 -16 -137 -20 -170 -4 -33 -8 -72 -10 -87 -2 -22 -8 -23 -32 -3 -16 13 -25 32 -19 41 5 9 0 22 -13 30 -16 10 -18 -4 -9 -47 8 -34 4 -80 -8 -103 -17 -31 -16 -41 3 -43 20 -1 21 -3 1 -11 -14 -6 -25 -23 -25 -39 0 -15 -7 -29 -15 -29 -8 -1 -40 -5 -70 -9 -30 -4 -67 5 -83 20 -15 16 -34 22 -43 14 -8 -8 -8 -2 0 13 10 18 36 23 73 16 43 -9 58 -4 58 17 0 18 -16 28 -42 25 -34 -4 -44 8 -50 60 -8 64 18 89 40 40 7 -14 7 32 1 102 -9 101 -4 137 24 180 20 29 54 97 77 152 45 111 207 239 410 323 61 25 151 68 200 96 109 62 216 55 304 -19z m1676 -39 c-23 -53 -46 -90 -53 -84 -7 7 8 54 32 105 56 121 74 103 21 -21z m-3130 11 c-31 -33 -63 -55 -71 -50 -9 5 -19 -1 -23 -14 -5 -13 -19 -17 -32 -9 -36 22 -29 53 9 38 23 -9 29 -5 19 11 -8 12 -30 24 -48 25 -23 1 -25 5 -8 12 15 5 43 -5 63 -23 35 -31 39 -30 81 29 24 34 49 57 56 51 6 -6 -14 -38 -46 -70z m930 29 c20 -24 19 -30 -6 -30 -45 0 -94 22 -94 42 0 29 73 20 100 -12z m1869 -41 c17 -18 31 -51 31 -75 0 -25 -7 -35 -15 -23 -8 12 -32 28 -52 36 -22 8 -33 25 -26 42 6 16 0 33 -13 38 -14 6 -9 11 10 11 18 1 47 -12 65 -29z m-2193 -136 c-22 -41 -23 -41 -36 -3 -21 58 -3 97 32 68 21 -17 22 -32 4 -65z m-707 -13 c11 0 8 -9 -9 -20 -16 -11 -43 -19 -60 -18 -19 0 -16 6 10 16 39 16 39 17 -5 30 -25 8 -45 28 -45 44 0 23 10 20 44 -11 24 -23 53 -41 65 -41z m377 -109 c-44 -60 -66 -64 -66 -12 0 33 24 50 86 59 9 1 0 -20 -20 -47z m139 -34 c-10 -37 -26 -64 -36 -60 -11 4 -17 16 -13 27 3 11 -14 13 -40 5 l-46 -14 44 43 c24 23 54 42 65 42 12 0 21 11 21 23 0 13 5 19 11 13 6 -7 3 -42 -6 -79z m1878 -82 c-44 -44 -123 6 -90 57 l32 48 38 -43 c22 -25 30 -52 20 -62z m-2228 66 c19 -10 50 -23 69 -29 36 -11 96 -131 96 -192 0 -20 14 -41 30 -47 17 -7 30 -2 30 9 0 11 9 15 20 8 12 -7 15 -21 9 -31 -6 -11 -2 -19 10 -19 11 0 21 -18 21 -40 0 -22 -13 -40 -28 -40 -16 0 -32 -10 -36 -21 -4 -12 -23 -15 -42 -8 -23 9 -29 21 -16 36 13 17 -7 25 -71 29 -59 4 -86 -1 -78 -15 8 -12 4 -21 -7 -21 -50 0 -38 42 16 53 161 32 158 171 -5 228 -64 22 -89 39 -72 49 19 12 16 22 -12 43 -45 33 7 40 66 8z m2499 -15 c-30 -8 -32 -14 -10 -40 22 -27 17 -30 -44 -18 l-70 13 65 -29 c36 -17 65 -34 65 -39 0 -6 5 -26 12 -46 11 -35 10 -35 -12 -1 -44 68 -120 81 -176 30 -27 -25 -45 -37 -40 -26 5 11 20 49 34 84 25 62 59 79 172 81 34 0 35 -1 4 -9z m-2158 -111 c16 -19 1 -25 -68 -27 -84 -2 -104 9 -75 39 23 22 121 14 143 -12z m1903 6 c43 -27 21 -38 -54 -26 -35 5 -60 17 -54 27 15 23 71 22 108 -1z m159 -178 c-32 -11 -78 39 -78 84 0 39 5 37 48 -17 27 -33 40 -63 30 -67z m-1158 -61 c0 -33 -13 -63 -30 -69 -21 -8 -30 -41 -30 -106 l0 -94 -60 57 c-70 67 -76 102 -20 120 22 7 40 21 40 31 0 31 7 47 39 84 43 50 61 43 61 -23z m1069 19 c35 -38 28 -81 -13 -81 -13 0 -12 11 4 30 20 25 19 30 -8 30 -17 0 -32 11 -32 25 -1 18 -5 17 -18 -3 -10 -15 -28 -21 -40 -13 -12 7 -17 22 -11 32 19 32 81 21 118 -20z m-1210 -20 c28 -51 27 -52 -19 -56 -30 -2 -40 10 -40 46 0 59 31 64 59 10z m-959 -62 c0 -11 25 -47 55 -81 30 -34 52 -67 48 -73 -3 -6 6 -18 20 -27 21 -14 21 -17 -4 -18 -17 0 -49 14 -70 31 -38 30 -37 31 9 18 33 -9 43 -6 33 10 -8 13 -36 21 -61 17 -47 -6 -205 116 -181 139 6 7 39 -14 74 -46 53 -51 59 -53 39 -14 -13 25 -18 55 -12 66 14 22 50 6 50 -22z m2194 -46 c-29 -37 -48 -72 -43 -77 5 -5 -2 -10 -16 -11 -14 -1 -47 -9 -75 -17 -43 -13 -47 -11 -25 15 13 17 19 37 11 44 -7 7 5 13 27 13 22 0 65 27 97 60 75 78 90 60 24 -27z m129 25 c-26 -21 -61 -38 -79 -38 -36 0 -25 14 51 60 70 44 90 29 28 -22z m-2525 -113 c-33 -144 -23 -285 21 -285 21 0 52 -13 68 -30 17 -16 43 -30 59 -30 31 0 54 -41 54 -93 0 -21 -12 -26 -40 -17 -31 10 -40 4 -40 -27 0 -47 -110 -81 -146 -45 -16 16 -8 22 28 22 91 0 135 86 57 110 -25 8 -38 25 -31 42 14 35 -69 39 -104 4 -19 -19 -24 -15 -24 15 0 30 -10 23 -41 -28 -23 -37 -45 -64 -50 -59 -18 19 59 176 86 176 23 0 25 6 7 27 -28 34 -7 147 30 161 16 6 28 27 28 47 0 30 34 85 52 85 2 0 -4 -34 -14 -75z m2481 -50 c-8 -56 2 -97 21 -85 11 7 14 -1 8 -19 -17 -43 -40 -39 -121 23 -66 50 -68 56 -35 80 45 33 131 34 127 1z m-2847 -151 c16 -61 18 -106 5 -129 -26 -49 -31 -44 -22 23 5 31 0 63 -11 70 -12 7 -16 -4 -10 -28 8 -31 3 -38 -21 -28 -19 7 -31 32 -28 58 2 30 13 42 32 35 22 -9 26 3 19 52 -13 89 8 58 36 -53z m708 26 c28 -4 57 -7 66 -8 55 -6 -21 -39 -91 -39 -47 -1 -116 -11 -155 -22 -88 -27 -106 -26 -89 1 28 45 140 99 179 86 22 -6 63 -15 90 -18z m2088 -15 c84 -48 116 -95 64 -95 -18 0 -32 7 -32 16 0 8 -28 32 -62 52 -60 36 -105 36 -258 0 l-50 -11 47 41 c64 56 189 55 291 -3z m648 -26 c47 -33 57 -99 23 -149 -15 -22 -17 -17 -8 23 10 42 5 52 -22 50 -19 -2 -39 10 -45 25 -7 21 1 25 28 15 30 -10 28 -5 -9 27 -56 47 -32 54 33 9z m-186 -24 c-8 -19 -19 -51 -25 -70 -8 -29 -45 -52 -45 -28 0 33 48 133 64 133 11 0 14 -15 6 -35z m-2450 -85 c0 -12 -22 -31 -50 -44 -27 -12 -50 -38 -50 -57 0 -36 -62 -63 -95 -42 -10 7 -18 38 -16 68 1 30 -7 56 -18 58 -12 2 29 10 89 17 61 7 117 15 125 17 8 2 15 -6 15 -17z m1913 -73 c-4 -59 -74 -51 -148 18 -58 55 -26 76 75 51 63 -17 75 -28 73 -69z m-3060 -17 c-7 -16 2 -22 25 -16 45 11 97 -47 67 -77 -31 -31 -152 36 -137 76 7 17 12 39 12 50 0 11 10 13 21 6 12 -7 17 -25 12 -39z m4082 22 c18 -18 -38 -72 -74 -72 -19 0 -55 23 -82 51 l-47 50 96 -9 c53 -5 101 -14 107 -20z m-2139 -157 c7 -58 -52 -215 -80 -215 -9 0 -16 -12 -16 -27 0 -15 -21 -50 -47 -78 -100 -108 -62 -392 72 -530 52 -54 57 -65 26 -65 -126 0 -378 370 -331 486 17 43 18 43 20 -6 5 -84 39 49 44 175 5 112 36 148 36 42 0 -63 1 -63 38 -25 51 52 1 115 -82 103 -54 -8 -85 22 -59 57 27 38 98 63 149 54 40 -8 64 2 99 42 59 68 123 62 131 -13z m326 4 c193 -89 252 -142 223 -204 l-21 -45 -20 52 c-12 29 -36 58 -55 66 -53 20 -57 0 -11 -46 106 -106 47 -453 -102 -595 -123 -118 -278 -188 -182 -82 139 153 191 348 135 505 -38 107 -35 155 5 81 l31 -59 24 69 c29 83 7 119 -49 83 -55 -34 -50 4 5 41 42 29 40 30 -45 15 -104 -19 -117 -13 -85 39 28 46 -23 76 -68 39 -21 -18 -27 -15 -27 16 0 80 102 90 242 25z m-2372 -30 c82 -35 82 -40 20 -209 -18 -49 -35 -150 -37 -223 -3 -138 -32 -146 -33 -10 0 68 -5 76 -40 67 -44 -11 -55 16 -15 34 14 6 8 9 -13 7 -49 -6 -62 -44 -27 -77 28 -26 23 -138 -6 -138 -32 0 -45 85 -37 250 4 90 82 330 106 330 4 0 41 -14 82 -31z m899 -10 c-12 -19 155 -10 228 13 43 13 68 -12 42 -44 -27 -31 -231 -39 -277 -10 -24 15 -16 62 10 62 6 0 5 -9 -3 -21z m2251 2 c0 -10 20 -22 45 -27 35 -7 32 -9 -15 -11 -76 -3 -150 16 -150 39 0 10 27 18 60 18 33 0 60 -8 60 -19z m200 -92 c0 -6 -22 -55 -50 -109 -27 -54 -50 -117 -50 -139 0 -23 -10 -41 -23 -41 -12 0 -34 -16 -48 -35 -59 -80 -48 1 15 109 37 64 78 141 91 171 21 47 65 77 65 44z m-2148 -143 c-70 -105 -88 -201 -42 -219 23 -9 45 -1 61 21 21 28 34 31 67 13 53 -28 54 -61 2 -61 -22 0 -40 -9 -40 -21 0 -33 58 -45 91 -18 16 13 36 18 44 9 8 -8 4 -19 -10 -24 -33 -12 -32 -46 0 -46 14 0 59 18 100 40 82 44 99 28 35 -30 -41 -38 -145 -50 -200 -24 -19 9 -39 0 -55 -25 -20 -33 -20 -38 5 -28 38 15 38 -8 0 -46 -27 -27 -30 -26 -30 3 0 18 -9 27 -19 21 -11 -7 -6 13 9 43 40 76 0 136 -88 136 -46 0 -56 5 -38 20 16 12 25 63 24 130 -1 96 7 118 60 176 80 86 95 39 24 -70z m1958 78 c-6 -17 -1 -37 12 -45 15 -10 16 -25 4 -48 -18 -31 -21 -31 -48 1 -43 52 -37 144 8 132 23 -6 32 -21 24 -40z m-2212 -149 c47 -85 77 -154 68 -154 -62 6 -93 44 -137 170 -81 231 -63 227 69 -16z m1138 150 c-3 -19 5 -34 19 -35 30 0 91 -84 70 -96 -8 -5 -37 -6 -65 -3 -27 3 -57 6 -65 7 -16 2 -2 114 17 145 17 28 30 19 24 -18z m983 -131 c-2 -90 -36 -167 -38 -87 0 31 -19 80 -41 108 -73 93 -41 183 35 95 27 -32 44 -77 44 -116z m-1980 128 c22 -2 24 -7 5 -26 -33 -33 -90 -39 -107 -11 -20 33 -3 53 38 45 19 -4 48 -8 64 -8z m241 -60 c0 -9 -13 -28 -30 -42 -16 -14 -30 -20 -30 -14 0 6 -5 25 -12 42 -9 23 0 32 30 32 23 0 42 -8 42 -18z m129 -35 c7 -19 5 -39 -4 -45 -9 -7 -32 -37 -51 -67 -37 -58 -94 -74 -94 -26 0 118 115 225 149 138z m71 -105 c0 -35 -24 -82 -42 -82 -21 0 -24 67 -5 87 20 19 47 16 47 -5z m1162 -17 c65 -82 83 -129 40 -106 -41 22 -102 97 -102 125 0 28 33 17 62 -19z m-599 -85 c3 -53 4 -56 53 -160 55 -115 55 -124 -9 -200 l-53 -63 -25 74 c-42 121 -52 173 -31 160 12 -7 15 23 9 80 -5 51 -5 105 1 121 16 42 52 34 55 -12z m736 -140 c38 0 44 -5 25 -24 -34 -34 -180 19 -220 79 -29 46 -29 46 58 -4 49 -28 110 -51 137 -51z m-1800 -10 c1 11 11 4 23 -15 11 -19 38 -35 59 -35 21 0 39 -9 39 -19 0 -21 -54 -7 -95 25 -17 12 -25 11 -25 -3 0 -27 110 -86 127 -69 7 7 13 1 13 -13 0 -16 -12 -20 -35 -11 -19 9 -51 17 -71 19 -44 5 -97 100 -80 145 11 29 15 29 28 -5 8 -22 16 -30 17 -19z m-994 -7 c14 9 84 -80 101 -128 7 -19 6 -35 -2 -34 -21 2 -144 160 -144 186 0 14 7 13 18 -4 9 -14 21 -23 27 -20z m1544 -1 c-10 -9 -55 -23 -99 -30 -78 -12 -79 -12 -30 17 54 32 161 43 129 13z m981 -194 c-33 -26 -67 -48 -75 -48 -31 0 -14 62 20 72 19 6 49 18 65 27 57 31 50 -3 -10 -51z m268 47 c-4 -3 -35 -24 -68 -46 -69 -48 -250 -121 -345 -139 -36 -7 -65 -20 -65 -29 0 -9 -18 -21 -40 -27 -22 -6 -40 -2 -40 9 0 11 -11 12 -25 4 -119 -74 -797 83 -832 192 -8 25 0 24 41 -3 298 -196 864 -195 1251 2 87 44 181 72 123 37z m462 -98 c70 8 163 0 205 -16 49 -20 -47 -32 -171 -23 -31 3 -71 -7 -89 -22 -18 -14 -27 -16 -19 -3 8 14 -11 27 -51 36 -57 13 -60 16 -25 31 22 9 58 12 80 5 22 -6 54 -10 70 -8z m-2440 -12 c0 -9 -18 -27 -40 -40 -24 -15 -40 -17 -40 -5 0 11 -20 20 -45 20 -36 1 -39 4 -15 20 36 23 140 27 140 5z m144 -8 c83 5 87 0 55 -60 -17 -32 -28 -35 -50 -16 -23 19 -29 17 -30 -14 -1 -31 -4 -30 -20 8 -10 25 -32 51 -49 58 -16 6 -30 20 -30 30 0 11 11 13 24 5 13 -9 58 -13 100 -11z m65 -251 c11 -29 -85 -151 -108 -136 -30 18 -43 137 -16 153 36 23 112 12 124 -17z m2196 -56 c15 -78 -6 -154 -38 -142 -23 9 -24 3 -5 -33 22 -43 21 -42 -31 5 -61 56 -122 160 -94 160 10 0 25 -16 32 -35 13 -33 15 -33 33 0 11 19 34 35 51 35 20 0 27 11 20 30 -7 17 -4 30 5 30 10 0 22 -22 27 -50z m-2196 -99 c-48 -72 -59 -49 -17 32 19 37 38 56 42 43 5 -13 -7 -47 -25 -75z m1963 -39 c29 -90 -216 -203 -404 -188 -154 13 -173 75 -23 76 30 0 55 9 55 20 0 11 16 20 36 20 19 0 55 14 80 31 130 91 235 108 256 41z m28 -160 c0 -5 -29 -26 -65 -48 -80 -48 -202 -74 -191 -41 5 13 28 26 52 30 24 4 73 20 109 35 70 31 95 37 95 24z m-375 -99 c62 39 91 23 56 -32 -22 -34 -203 -7 -216 33 -6 17 11 18 64 4 39 -11 83 -13 96 -5z"/> <path d="M2330 3440 c7 -11 25 -20 40 -20 34 0 69 -60 72 -124 2 -45 2 -45 17 4 8 28 6 61 -4 74 -10 13 -13 33 -6 44 6 10 3 25 -9 32 -11 7 -20 3 -20 -8 0 -14 -17 -15 -51 -2 -34 13 -47 13 -39 0z"/> <path d="M2575 3425 c-19 -4 -35 -17 -35 -28 0 -10 -7 -15 -15 -10 -8 5 -17 -10 -19 -34 -3 -24 -7 -61 -10 -83 -4 -29 4 -38 30 -34 28 5 33 -4 23 -43 -7 -27 -3 -55 9 -62 12 -7 22 -30 22 -51 0 -21 11 -44 23 -52 16 -10 20 -4 11 18 -7 18 1 46 17 62 42 42 36 70 -14 57 -40 -10 -42 -6 -30 54 7 36 13 81 13 99 1 22 5 25 16 8 11 -17 24 -18 45 -3 22 15 23 23 4 30 -14 6 -25 23 -25 37 0 35 -20 45 -65 35z"/> <path d="M2121 2895 c-30 -117 -64 -178 -146 -262 -57 -58 -69 -102 -35 -123 11 -7 18 -46 17 -88 -5 -124 105 -208 210 -160 35 16 59 16 93 -2 32 -17 50 -18 66 -2 12 12 38 22 57 22 59 0 63 40 9 82 -29 23 -52 57 -52 77 0 20 -15 48 -34 64 -29 23 -31 23 -17 -1 12 -19 10 -24 -6 -14 -13 8 -19 22 -14 31 13 21 -28 55 -78 64 -53 10 -67 82 -49 256 20 180 14 195 -21 56z"/> <path d="M2895 2900 c-8 -27 -8 -97 -2 -155 14 -115 -42 -203 -119 -189 -23 5 -34 -6 -34 -34 0 -22 -18 -50 -40 -62 -22 -12 -40 -38 -40 -58 0 -47 -50 -90 -84 -71 -14 8 -6 -6 17 -31 45 -47 111 -56 212 -30 44 12 55 8 55 -19 0 -37 57 -5 154 87 24 23 54 42 65 42 28 0 27 34 -1 51 -14 9 -18 43 -10 90 10 64 5 82 -31 107 -37 26 -99 169 -121 282 -7 35 -9 34 -21 -10z m45 -446 c0 -4 -27 -37 -60 -74 -33 -37 -60 -54 -59 -39 0 31 59 119 59 89 0 -10 11 -7 24 6 24 24 36 30 36 18z"/> <path d="M3115 2143 c25 -22 45 -49 45 -61 0 -12 15 -22 33 -22 41 0 -16 71 -83 103 -35 17 -34 14 5 -20z"/> </g> </svg> 